<svg width="56" height="64" fill="none" xmlns="http://www.w3.org/2000/svg"><g id="fireman" fill="#86ADEF"><path id="Shape" fill-rule="evenodd" clip-rule="evenodd" d="M53.3 50.265c-.674-4.184-3.51-7.617-7.399-8.959l-8.637-2.978V37h-2.007v1.762L28.23 49.666l-7.026-10.904V37h-2.008v1.328l-8.636 2.978c-3.89 1.342-6.725 4.775-7.4 8.96L.95 64h54.564L53.3 50.265zM10.26 61.923H3.32l.322-2.004 6.727.87-.11 1.134zM3.971 57.87l6.596.853.21-2.164-6.46-.836-.346 2.147zm23.255 4.054h-14.95l.893-9.242-1.997-.207-.195 2.018-6.33-.819.494-3.065c.551-3.424 2.87-6.233 6.054-7.33l7.163-2.471-3.456 8.045 12.324 7.436v5.635zm-9.76-13.929l9.76 5.89v-2.03l-6.85-10.632-2.91 6.772zm11.768 3.86l6.849-10.63 2.91 6.771-9.76 5.89v-2.032zm14.057.826l1.997-.207.196 2.019 6.33-.819-.495-3.065c-.552-3.424-2.871-6.233-6.055-7.333l-7.164-2.47 3.456 8.045-12.323 7.437v5.635h6.023v-8.308h2.007v8.308h6.92l-.892-9.242zm2.391 3.878l6.46-.836.346 2.147-6.597.853-.209-2.164zm.41 4.231l.11 1.134h6.94l-.323-2.004-6.727.87z"/><path id="Shape_2" fill-rule="evenodd" clip-rule="evenodd" d="M11.61 19.514H10.4c-.808 0-1.57-.32-2.141-.903L5.82 16.13l1.43-1.45 2.438 2.48c.188.19.448.3.714.3h2.193v-2.054C12.594 6.911 19.391 0 27.744 0c8.354 0 15.15 6.91 15.15 15.405v2.054h2.193c.266 0 .526-.11.713-.3l2.439-2.48 1.428 1.452-2.438 2.48a2.983 2.983 0 01-2.143.902h-1.209a5.138 5.138 0 011.037 3.082c0 2.635-1.97 4.788-4.487 5.077a11.284 11.284 0 01-2.807 4.819l-3.938 4.005A4.976 4.976 0 0130.11 38h-4.732a4.976 4.976 0 01-3.572-1.504l-3.938-4.005a11.27 11.27 0 01-2.807-4.819c-2.517-.29-4.486-2.442-4.486-5.077 0-1.16.394-2.22 1.035-3.081zm24.582 11.525a9.266 9.266 0 002.662-6.536v-4.99h-22.22v4.99c0 2.469.947 4.79 2.663 6.536l3.938 4.005a2.986 2.986 0 002.143.902h4.732c.81 0 1.571-.32 2.144-.902l3.938-4.005zM20.805 9.729l6.94-4.41 6.938 4.41-1.69 7.73H22.495l-1.689-7.73zm20.021 15.772a3.07 3.07 0 002.068-2.906 3.074 3.074 0 00-2.02-2.892v4.8c0 .336-.02.668-.048.998zM14.614 15.405h3.03v-2.054h-2.858c.977-6.388 6.407-11.297 12.958-11.297 6.55 0 11.981 4.91 12.958 11.297h-2.858v2.054h3.03v2.054h-5.81l1.901-8.702-9.22-5.86-9.222 5.86 1.902 8.702h-5.81v-2.054zm0 9.098v-4.8a3.074 3.074 0 00-2.02 2.892c0 1.354.871 2.495 2.068 2.907a11.81 11.81 0 01-.048-1z"/><path id="Rectangle" d="M24.333 13h7.795v2h-7.795z"/><path id="Rectangle_2" d="M34.077 45h1.949v2h-1.949z"/><path id="Rectangle_3" d="M31.154 58h1.949v2h-1.949z"/><path id="Rectangle_4" d="M25.308 40h5.846v2h-5.846z"/></g></svg>