<svg width="63" height="64" fill="none" xmlns="http://www.w3.org/2000/svg"><g id="plug" fill="#86ADEF"><path id="Shape" fill-rule="evenodd" clip-rule="evenodd" d="M10.847 48.434c1.418 0 2.751.55 3.754 1.548a5.272 5.272 0 010 7.473A5.306 5.306 0 0110.847 59c-1.36 0-2.72-.515-3.755-1.545a5.274 5.274 0 01-.537-6.847C2.747 45.333.68 39.12.569 32.57.45 25.687 2.499 19.1 6.493 13.523a1.257 1.257 0 011.748-.291c.563.4.695 1.178.293 1.739-7.239 10.11-7.214 23.933-.06 34.02a5.308 5.308 0 012.373-.557zm-1.982 7.257a2.816 2.816 0 003.964 0 2.792 2.792 0 00-1.982-4.763c-.749 0-1.453.29-1.982.818a2.783 2.783 0 000 3.945z"/><path id="Shape_2" fill-rule="evenodd" clip-rule="evenodd" d="M48.324 56.37a1.2 1.2 0 011.701.28c.395.559.272 1.34-.274 1.743a30.443 30.443 0 01-12.63 5.51 5.687 5.687 0 01-4.747-1.28 5.944 5.944 0 01-2.07-4.53v-9.15h-.137c-1.41 0-2.559-1.176-2.559-2.621v-2.108c-4.128-1.614-7.068-5.712-7.068-10.5v-5.91c-1.964-.55-3.412-2.392-3.412-4.576 0-2.404 1.755-4.395 4.021-4.701v-7.782C21.15 8.68 22.79 7 24.805 7s3.656 1.68 3.656 3.745v7.74h6.093v-7.74C34.554 8.68 36.194 7 38.21 7s3.655 1.68 3.655 3.745v7.782c2.267.306 4.022 2.297 4.022 4.7 0 2.184-1.448 4.027-3.412 4.577v5.91c0 4.788-2.94 8.886-7.068 10.5v2.107c0 1.446-1.148 2.622-2.559 2.622h-.106v9.15a3.43 3.43 0 001.194 2.614 3.286 3.286 0 002.748.74 28.054 28.054 0 0011.64-5.078zM38.21 9.496c-.672 0-1.219.56-1.219 1.248v7.74h2.438v-7.74c0-.688-.547-1.248-1.22-1.248zm-14.623 1.248c0-.688.547-1.248 1.218-1.248.672 0 1.219.56 1.219 1.248v7.74h-2.437v-7.74zM21.759 20.98c-1.21 0-2.194 1.008-2.194 2.247 0 1.239.984 2.247 2.194 2.247h19.497c1.21 0 2.194-1.008 2.194-2.247 0-1.239-.984-2.247-2.194-2.247H21.76zm1.219 12.733V27.97h17.06v5.743c0 4.818-3.827 8.738-8.53 8.738-4.704 0-8.53-3.92-8.53-8.738zm8.562 12.732h1.308a.123.123 0 00.122-.124v-1.474a10.762 10.762 0 01-2.925 0v1.474c0 .068.055.124.122.124h1.326l.03-.001h.017z"/><path id="Path" d="M53.69 53.403a1.433 1.433 0 00-2.066.076 1.526 1.526 0 00.07 2.118 1.435 1.435 0 002.067-.076 1.526 1.526 0 00-.07-2.118z"/><path id="Path_2" d="M62.84 29.994c-.541-7.756-3.752-15.06-9.039-20.566C48.605 4.016 41.663.703 34.255.101a30.426 30.426 0 00-20.51 5.822 1.3 1.3 0 00-.29 1.766 1.186 1.186 0 001.695.303c11.3-8.319 27.176-6.931 36.93 3.228 10.081 10.498 11.3 26.802 2.899 38.765a1.302 1.302 0 00.264 1.77c.216.166.468.245.717.245a1.2 1.2 0 00.983-.52c4.34-6.179 6.434-13.81 5.898-21.486z"/><path id="Path_3" d="M11.827 9.431a1.424 1.424 0 00-2.05.01l-.024.024a1.515 1.515 0 00.01 2.104 1.427 1.427 0 002.05-.01l.023-.024a1.515 1.515 0 00-.009-2.104z"/><path id="Path_4" d="M34.5 32.651a1.221 1.221 0 00-1.056-.61h-.874l1.61-2.046a1.237 1.237 0 00-.2-1.73 1.217 1.217 0 00-1.718.202l-3.178 4.04a1.24 1.24 0 00-.142 1.3c.205.425.632.695 1.101.695h1.303l-1.497 2.66a1.235 1.235 0 00.461 1.678 1.221 1.221 0 001.667-.464l2.53-4.498a1.237 1.237 0 00-.007-1.227z"/></g></svg>