<svg width="65" height="66" fill="none" xmlns="http://www.w3.org/2000/svg"><g id="curve" fill-rule="evenodd" clip-rule="evenodd" fill="#86ADEF"><path id="Shape" d="M30.986 6.703c.918-.938 2.548-.935 3.462-.003l24.348 25.004a2.569 2.569 0 01.002 3.556L34.45 60.264c-.46.469-1.09.736-1.732.736a2.439 2.439 0 01-1.73-.734L6.64 35.262a2.576 2.576 0 01-.717-1.779c0-.66.26-1.307.715-1.776L30.986 6.703zm-22.29 26.78l24.022 24.669L56.74 33.483 32.72 8.815 8.696 33.483z"/><path id="Shape_2" d="M21.628 20.969a1.458 1.458 0 01.1-1.332c.248-.398.67-.637 1.125-.637H36.25c.495 0 .949.284 1.181.74a1.456 1.456 0 01-.066 1.437l-1.894 2.966 2.108 1.469c3.363 2.345 5.37 6.263 5.37 10.483V45.6c0 .774-.6 1.4-1.34 1.4h-5.36c-.74 0-1.339-.626-1.339-1.4v-9.505c0-1.406-.67-2.712-1.79-3.494l-2.107-1.468-1.687 2.644c-.27.423-.74.664-1.228.618a1.344 1.344 0 01-1.111-.826l-5.359-12.6zm10.871 2.786l1.247-1.955h-8.831l3.533 8.307 1.079-1.692c.197-.31.503-.524.852-.597.35-.074.711.002 1.006.208l3.222 2.245c1.868 1.303 2.983 3.48 2.983 5.824V44.2h2.68v-8.105c0-3.282-1.561-6.33-4.177-8.154l-3.222-2.244a1.405 1.405 0 01-.57-.89 1.45 1.45 0 01.198-1.052z"/><path id="Shape_3" d="M37.752 2.347l24.346 24.986c1.453 1.492 2.287 3.557 2.287 5.667s-.834 4.175-2.288 5.667L37.752 63.653A7.76 7.76 0 0132.23 66a7.76 7.76 0 01-5.522-2.347L2.364 38.667C.91 37.175.077 35.11.077 33s.833-4.175 2.287-5.666L26.71 2.347C28.163.855 30.198 0 32.232 0c2.034 0 4.067.856 5.52 2.347zm-1.895 59.361l24.346-24.986A5.37 5.37 0 0061.705 33a5.37 5.37 0 00-1.502-3.722L35.857 4.292a5.097 5.097 0 00-3.626-1.542c-1.35 0-2.672.561-3.627 1.542L4.258 29.278A5.37 5.37 0 002.756 33a5.37 5.37 0 001.502 3.722l24.346 24.986c1.91 1.96 5.343 1.96 7.254 0z"/></g></svg>