<svg width="77" height="67" fill="none" xmlns="http://www.w3.org/2000/svg"><g id="tracktor" fill="#86ADEF"><path id="Shape" fill-rule="evenodd" clip-rule="evenodd" d="M24.742 20c1.113 0 2.103.8 2.35 1.867l1.733 6.666c.248.8.124 1.6-.371 2.4C28.083 31.6 27.34 32 26.598 32H15.834c-1.361 0-2.475-1.2-2.475-2.667v-6.666c0-1.467 1.114-2.667 2.475-2.667h8.908zm-8.909 2.667v6.666h10.765l-1.856-6.666h-8.909z"/><path id="Path" d="M18.718 59c-.877 0-1.462.6-1.462 1.5s.585 1.5 1.462 1.5 1.462-.6 1.462-1.5-.585-1.5-1.462-1.5z"/><path id="Path_2" d="M24.564 59c-.877 0-1.462.6-1.462 1.5s.585 1.5 1.462 1.5 1.462-.6 1.462-1.5-.585-1.5-1.462-1.5z"/><path id="Path_3" d="M31.384 59c-.876 0-1.461.6-1.461 1.5s.585 1.5 1.462 1.5c.876 0 1.461-.6 1.461-1.5s-.584-1.5-1.461-1.5z"/><path id="Path_4" d="M37.23 59c-.876 0-1.46.6-1.46 1.5s.584 1.5 1.46 1.5c.878 0 1.462-.6 1.462-1.5s-.584-1.5-1.461-1.5z"/><path id="Path_5" d="M44.051 59c-.877 0-1.461.6-1.461 1.5s.584 1.5 1.461 1.5c.877 0 1.462-.6 1.462-1.5S44.928 59 44.05 59z"/><path id="Shape_2" fill-rule="evenodd" clip-rule="evenodd" d="M53.445 54.05h1.714c3.547 0 6.333 2.849 6.333 6.475 0 3.626-2.786 6.475-6.333 6.475H7.026C3.479 67 .692 64.151.692 60.525c0-3.626 2.787-6.475 6.334-6.475V17.789c0-2.85 2.28-5.18 5.066-5.18h3.8v-2.59c0-2.85 2.28-5.18 5.067-5.18 2.787 0 5.067 2.33 5.067 5.18v2.59h3.293c2.407 0 4.433 1.683 4.94 4.014l2.552 11.675L61.366 1.73c1.9-2.072 5.066-2.33 7.22-.518 1.14.907 1.9 2.332 2.026 3.886a5.437 5.437 0 01-.26 2.186c.005.047.007.095.007.145v16.946c3.582.621 6.333 3.827 6.333 7.66 0 1.683-.506 3.366-1.52 4.661-.253.389-.633.518-1.013.518-.253 0-.506-.129-.759-.258-.507-.39-.633-1.296-.254-1.814.634-.906 1.014-1.942 1.014-3.108 0-2.849-2.28-5.18-5.067-5.18-2.786 0-5.066 2.331-5.066 5.18 0 1.166.38 2.202 1.013 3.108.38.518.253 1.425-.253 1.813-.507.389-1.394.26-1.774-.259-1.013-1.295-1.52-2.978-1.52-4.662 0-3.832 2.751-7.038 6.334-7.66v-13.65l-24.91 26.49h11.99c1.14 0 2.026.518 2.66 1.554.506.907.633 2.072.126 2.979L53.445 54.05zM12.123 64.41h37.94a6.588 6.588 0 01-1.237-3.885c0-1.469.457-2.81 1.236-3.885h-37.94a6.588 6.588 0 011.237 3.885 6.59 6.59 0 01-1.236 3.885zM63.266 3.673c1.013-1.036 2.66-1.166 3.8-.26.633.39 1.013 1.166 1.013 1.943 0 .777-.253 1.555-.76 2.072L39.452 37.214h-.633l-.907-3.879-.46-2.105L63.266 3.673zM20.959 7.429c-1.393 0-2.533 1.165-2.533 2.59v2.59h5.066v-2.59c0-1.425-1.14-2.59-2.533-2.59zm-11.4 10.36c0-1.425 1.14-2.59 2.533-2.59h17.1c1.267 0 2.28.906 2.534 2.072l4.433 19.943H9.56V17.79zm27.867 32.375H9.559v3.886h40.787c.253 0 .38-.13.506-.26l4.56-13.079c.127-.259 0-.518 0-.518 0-.13-.253-.259-.506-.259H9.559v2.46h20.267c.76 0 1.266.518 1.266 1.295 0 .778-.506 1.295-1.266 1.295H9.559v2.59h27.867c.76 0 1.266.519 1.266 1.296s-.506 1.294-1.266 1.294zm-34.2 10.36c0-2.2 1.646-3.884 3.8-3.884 2.153 0 3.8 1.683 3.8 3.885s-1.647 3.885-3.8 3.885c-2.154 0-3.8-1.684-3.8-3.885zm48.133 0c0 2.203 1.647 3.886 3.8 3.886 2.153 0 3.8-1.683 3.8-3.885s-1.647-3.885-3.8-3.885c-2.153 0-3.8 1.683-3.8 3.885z"/><path id="Shape_3" fill-rule="evenodd" clip-rule="evenodd" d="M75.415 40.6l1.231 5.136c.123.385 0 .899-.37 1.155l-3.694 3.852c-.247.129-.493.257-.862.257h-.247l-6.159-1.284c-.492-.128-.862-.513-.985-.899l-1.232-5.135c-.123-.386 0-.899.37-1.156l4.927-5.136c.37-.385.985-.513 1.478-.256l4.927 2.568c.37.128.615.513.615.898zm-8.869 6.677l4.804 1.027 2.71-2.825-.986-3.852-3.572-1.926-3.818 3.98.862 3.596z"/></g></svg>