<svg width="65" height="66" fill="none" xmlns="http://www.w3.org/2000/svg"><g id="crane"><path id="Shape" fill-rule="evenodd" clip-rule="evenodd" d="M55.251 31.9c0 .608-.48 1.1-1.072 1.1h-2.143v2.339a4.29 4.29 0 012.706 2.167c1.119 2.131.343 4.789-1.733 5.937l8.045 8.257h2.772c.592 0 1.071.492 1.071 1.1v9.9c0 .607-.48 1.1-1.071 1.1H38.102c-.591 0-1.071-.492-1.071-1.1v-9.9c0-.607.48-1.1 1.072-1.1h2.771l8.045-8.257c-1.377-.763-2.237-2.237-2.242-3.843v-1.1h2.144v1.1c0 1.215.96 2.2 2.143 2.2 1.184 0 2.144-.985 2.144-2.2 0-1.215-.96-2.2-2.144-2.2-.592 0-1.072-.492-1.072-1.1V33H47.75c-.592 0-1.072-.492-1.072-1.1V16.5H25.24v20.445l3.973 4.077c.201.207.314.486.314.778v17.6h2.144V66H10.236v-6.6h2.143V41.8c0-.292.114-.571.315-.778l3.973-4.077V16.5H1.662C1.07 16.5.59 16.008.59 15.4V11l.003-.018a.062.062 0 00.004-.02 1.12 1.12 0 01.075-.379v-.013c.052-.12.125-.23.215-.323a1.08 1.08 0 01.1-.084c.046-.046.095-.087.148-.123L18.284.14a.223.223 0 01.038-.016l.035-.014c.025-.012.05-.021.076-.031l.008-.003A1.04 1.04 0 0118.81 0h4.286c.083 0 .165.008.245.026l40.728 9.9a.224.224 0 01.05.022.222.222 0 00.038.018c.058.02.114.046.168.077.183.1.332.253.429.44.029.052.053.106.073.162.024.076.039.154.046.234.01.04.018.08.023.121v4.4c0 .607-.48 1.1-1.071 1.1H55.25v15.4zm7.503-19.8H55.25v2.2h7.503v-2.2zm0 41.8v7.7h-23.58v-7.7h23.58zm-11.79-9.444L43.905 51.7h14.118l-7.059-7.244zM53.108 26.4H48.82v-9.9h4.287v9.9zM48.82 14.3h4.287v-2.2H48.82v2.2zM19.882 2.2h2.144v7.7h-2.144V2.2zm3.215 9.9H18.81v2.2h3.844l.444-.455V12.1zm0 12.745L19.254 20.9l3.843-3.945v7.89zM20.51 16.5h-1.7v1.745l1.7-1.745zm-1.7 7.055l3.844 3.945-3.844 3.945v-7.89zM23.097 37.4v-7.244L19.254 34.1l3.843 3.945V37.4zm-4.287 0v-.645l3.844 3.945-3.844 3.945V37.4zm4.287 13.845v-7.89L19.254 47.3l3.843 3.945zm-4.287-1.29l3.844 3.945-3.844 3.945v-7.89zm4.287 9.445v-2.844L20.326 59.4h2.771zM17.738 2.981v6.92H5.753l11.985-6.92zM2.733 12.1v2.2h13.934v-2.2H2.733zm11.79 30.155l2.144-2.2V59.4h-2.144V42.255zM29.528 63.8v-2.2H12.38v2.2h17.148zm-2.143-21.544V59.4H25.24V40.056l2.144 2.2zM25.24 14.3h21.436v-2.2H25.24v2.2zm-1.072-4.4V2.49L54.65 9.9H24.17zM48.82 28.6v2.2h4.287v-2.2H48.82z" fill="#86ADEF"/></g></svg>