<svg width="65" height="66" fill="none" xmlns="http://www.w3.org/2000/svg"><g id="excavator" fill-rule="evenodd" clip-rule="evenodd" fill="#86ADEF"><path id="Shape" d="M33.473 22h4.535c.576 0 1.043.485 1.043 1.083v10.834c0 .598-.467 1.083-1.044 1.083H25.48c-.576 0-1.044-.485-1.044-1.083v-2.539c0-.287.11-.562.306-.766l7.994-8.295c.195-.203.46-.317.737-.317zm-6.949 10.833h10.44v-8.666h-3.058l-7.382 7.66v1.006z"/><path id="Shape_2" d="M32.23 57.5c0-2.485 1.964-4.5 4.386-4.5C39.036 53 41 55.015 41 57.5S39.037 62 36.615 62c-2.421 0-4.384-2.015-4.384-4.5zm2.193 0c0 1.242.982 2.25 2.193 2.25 1.21 0 2.192-1.008 2.192-2.25s-.982-2.25-2.192-2.25c-1.211 0-2.193 1.008-2.193 2.25z"/><path id="Shape_3" d="M45.872 57.5c0-2.485 1.963-4.5 4.384-4.5 2.422 0 4.385 2.015 4.385 4.5S52.678 62 50.256 62c-2.421 0-4.384-2.015-4.384-4.5zm2.192 0c0 1.242.981 2.25 2.192 2.25 1.211 0 2.192-1.008 2.192-2.25s-.98-2.25-2.192-2.25c-1.21 0-2.192 1.008-2.192 2.25z"/><path id="Shape_4" d="M20.538 57.5c0-2.485 1.963-4.5 4.385-4.5 2.422 0 4.385 2.015 4.385 4.5S27.345 62 24.923 62c-2.422 0-4.385-2.015-4.385-4.5zm2.193 0c0 1.242.981 2.25 2.192 2.25 1.21 0 2.192-1.008 2.192-2.25s-.981-2.25-2.192-2.25c-1.21 0-2.192 1.008-2.192 2.25z"/><path id="Shape_5" d="M63.313 46.2c.592 0 1.072-.493 1.072-1.1v-11c0-.608-.48-1.1-1.072-1.1H42.948V18.7c0-.607-.48-1.1-1.071-1.1H31.159a1.06 1.06 0 00-.758.322l-2.457 2.523L8.337.322A1.059 1.059 0 007.58 0H1.149C.557 0 .077.492.077 1.1v37.4c0 .368.179.711.477.915l9.646 6.6a1.055 1.055 0 001.487-.305 1.09 1.09 0 00.147-.343l3.216-13.2 1.072-4.4c.14-.59-.213-1.185-.788-1.328a1.07 1.07 0 00-1.291.793l-.869 3.568H5.613l2.704-18.059 13.567 13.923-2.2 2.258a1.111 1.111 0 00-.315.778V44h-1.072c-.592 0-1.072.492-1.072 1.1v5.588c-4.096.64-6.911 4.568-6.287 8.772.555 3.739 3.674 6.511 7.36 6.54h38.584c4.143-.033 7.477-3.507 7.444-7.759-.028-3.782-2.729-6.984-6.372-7.553V46.2h5.359zm-1.072-11V44H42.95v-8.8h19.29zm-60.02 2.71l7.903 5.408L12.637 33H2.22v4.911zM8.337 9.65a1.052 1.052 0 00-1.515-.01 1.106 1.106 0 00-.307.62L3.445 30.8H2.22V2.2h4.916L26.428 22l-3.029 3.108L8.337 9.65zm15.82 17.79l-2.644 2.715V44h19.292V19.8h-9.202L28.7 22.778l-4.544 4.663zM62.24 58.3c-.004 3.036-2.4 5.497-5.36 5.5H18.298c-2.96 0-5.359-2.462-5.359-5.5 0-3.037 2.4-5.5 5.36-5.5h38.584c2.958.004 5.355 2.464 5.36 5.5zm-42.87-7.7h36.44v-4.4H19.37v4.4z"/></g></svg>