<svg width="65" height="66" fill="none" xmlns="http://www.w3.org/2000/svg"><g id="settings" fill="#86ADEF"><path id="Shape" fill-rule="evenodd" clip-rule="evenodd" d="M27.82 39.501c0-6.341 5.026-11.5 11.205-11.5 6.178 0 11.205 5.159 11.205 11.5s-5.027 11.5-11.205 11.5c-6.179 0-11.205-5.159-11.205-11.5zm2.546 0c0 4.9 3.884 8.886 8.659 8.886 4.774 0 8.658-3.986 8.658-8.886 0-4.9-3.884-8.886-8.658-8.886-4.775 0-8.659 3.986-8.659 8.886z"/><path id="Shape_2" fill-rule="evenodd" clip-rule="evenodd" d="M63.597 58.54l-3.445-3.536a1.233 1.233 0 00-1.776 0c-.49.503-.49 1.32 0 1.823l3.445 3.537c.33.339.512.789.512 1.268s-.181.93-.512 1.268a1.717 1.717 0 01-2.47 0l-9.638-9.893c3.71-3.075 6.09-7.78 6.09-13.044 0-5.699-2.787-10.742-7.035-13.77v-5.638c0-.712-.562-1.289-1.256-1.289H44.34a21.074 21.074 0 00-1.989-4.921l2.245-2.305c.49-.503.49-1.32 0-1.823l-5.782-5.934a1.233 1.233 0 00-1.776 0l-2.245 2.304a19.946 19.946 0 00-4.796-2.04V1.29c0-.712-.562-1.289-1.256-1.289h-8.177c-.693 0-1.256.577-1.256 1.29V4.54a19.956 19.956 0 00-4.804 2.038l-2.236-2.295a1.234 1.234 0 00-1.776 0L4.71 10.218a1.313 1.313 0 000 1.822l2.23 2.29a21.059 21.059 0 00-1.998 4.936H1.793c-.693 0-1.256.577-1.256 1.29v8.392c0 .712.563 1.289 1.256 1.289h3.143a21.05 21.05 0 001.995 4.946l-2.222 2.28c-.49.503-.49 1.32 0 1.823l5.783 5.934c.49.504 1.285.504 1.776 0l2.221-2.28c1.517.895 3.13 1.58 4.819 2.048v3.225c0 .712.562 1.29 1.256 1.29h5.494c2.95 4.359 7.864 7.218 13.416 7.218a15.91 15.91 0 008.132-2.23l9.968 10.232a4.19 4.19 0 006.023 0 4.402 4.402 0 001.248-3.091 4.4 4.4 0 00-1.248-3.091zM21.82 46.925v-2.95c0-.606-.412-1.13-.99-1.259a17.496 17.496 0 01-5.852-2.486 1.232 1.232 0 00-1.567.173l-2.031 2.084-4.006-4.112 2.03-2.084a1.315 1.315 0 00.169-1.609 18.478 18.478 0 01-2.422-6.006 1.264 1.264 0 00-1.228-1.016H3.05v-5.815h2.88c.59 0 1.1-.422 1.227-1.014a18.479 18.479 0 012.426-5.998c.32-.51.25-1.18-.168-1.61l-2.04-2.093 4.006-4.111 2.045 2.098c.417.429 1.069.5 1.566.174a17.508 17.508 0 015.84-2.477c.577-.129.989-.654.989-1.26V2.579h5.665v2.98c0 .605.412 1.13.989 1.259a17.49 17.49 0 015.83 2.48c.497.329 1.15.257 1.568-.172l2.054-2.108 4.006 4.111-2.054 2.108a1.314 1.314 0 00-.17 1.609 18.475 18.475 0 012.419 5.984 1.264 1.264 0 001.227 1.014h2.902v2.876a15.882 15.882 0 00-8.38-1.435 13.719 13.719 0 00-3.916-8.281c-2.504-2.518-5.813-3.905-9.319-3.905-7.341 0-13.314 6.13-13.314 13.665 0 7.043 5.219 12.857 11.895 13.587a17.164 17.164 0 001.401 8.573H21.82zm-1.794-22.16c0 2.611 2.07 4.736 4.615 4.736 2.544 0 4.614-2.125 4.614-4.736 0-2.612-2.07-4.736-4.614-4.736s-4.615 2.124-4.615 4.736zm4.615-7.314c-3.93 0-7.127 3.28-7.127 7.314 0 4.033 3.197 7.314 7.127 7.314.147 0 .292-.006.437-.015a16.912 16.912 0 00-1.422 3.739c-5.496-.513-9.816-5.266-9.816-11.038 0-6.113 4.845-11.086 10.801-11.086 5.572 0 10.24 4.444 10.752 10.057-1.28.34-2.5.835-3.64 1.465.01-.144.014-.29.014-.436 0-4.033-3.196-7.314-7.126-7.314zm14.833 8.333c-7.618 0-13.816 6.36-13.816 14.18 0 7.819 6.198 14.18 13.816 14.18s13.816-6.361 13.816-14.18c0-7.82-6.198-14.18-13.816-14.18z"/><path id="Path" d="M39.778 34.001c-.685 0-1.24.57-1.24 1.273s.555 1.273 1.24 1.273c1.709 0 3.1 1.427 3.1 3.181 0 .703.555 1.273 1.24 1.273.685 0 1.24-.57 1.24-1.273 0-3.158-2.503-5.727-5.58-5.727z"/><path id="Path_2" d="M54.127 52.502c0 .394.155.78.428 1.06.272.279.65.439 1.034.439s.761-.16 1.033-.44a1.53 1.53 0 000-2.12A1.455 1.455 0 0055.59 51c-.384 0-.762.16-1.034.44a1.523 1.523 0 00-.428 1.06z"/></g></svg>