<svg width="72" height="66" fill="none" xmlns="http://www.w3.org/2000/svg"><g id="toxic-waste" fill="#86ADEF"><path id="Path" d="M71.282 32.997a2.62 2.62 0 00-.851-1.935V19.529a2.152 2.152 0 00.851-1.718c0-.887-.536-1.666-1.339-1.995a1.051 1.051 0 00-.568-.166h-22.98V4.62a2.51 2.51 0 001.128-2.099 2.512 2.512 0 00-1.591-2.34A1.055 1.055 0 0045.339 0H13.947c-.583 0-1.056.47-1.056 1.051s.473 1.052 1.056 1.052h31.095c.016.005.032.01.049.013a.416.416 0 010 .81 1.052 1.052 0 00-.807 1.022v16.83c0 .392.218.751.565.932a1.04 1.04 0 010 1.845c-.347.182-.565.54-.565.931v17.027c0 .39.218.75.565.931a1.039 1.039 0 010 1.845 1.05 1.05 0 00-.565.932v16.83c0 .485.334.908.807 1.022a.417.417 0 010 .81 1.23 1.23 0 00-.05.014H2.685a.42.42 0 01-.42-.419.42.42 0 01.421-.418c.583 0 1.056-.471 1.056-1.052V45.366c0-.46-.301-.867-.742-1.004a1.037 1.037 0 01-.735-.995c0-.459.295-.859.735-.994.44-.137.742-.544.742-1.005V24.632c0-.46-.301-.868-.742-1.005a1.037 1.037 0 01-.735-.994c0-.46.295-.86.735-.995.44-.137.742-.544.742-1.004V3.99c0-.58-.474-1.051-1.057-1.051a.42.42 0 01-.42-.419.42.42 0 01.421-.418h5.74c.584 0 1.056-.47 1.056-1.052C9.482.471 9.01 0 8.427 0H2.685A2.529 2.529 0 00.154 2.521c0 1.016.605 1.893 1.477 2.292v15.155a3.126 3.126 0 00-1.477 2.665c0 1.108.57 2.1 1.477 2.664v15.405a3.126 3.126 0 00-1.477 2.665c0 1.108.57 2.1 1.477 2.665v15.154A2.524 2.524 0 00.154 63.48 2.53 2.53 0 002.686 66H59.34c.583 0 1.056-.47 1.056-1.051s-.473-1.052-1.056-1.052H47.487a2.51 2.51 0 00-1.092-2.517V49.917h4.32c.583 0 1.055-.47 1.055-1.051 0-.58-.472-1.051-1.055-1.051h-4.32v-2.039a3.13 3.13 0 001.128-2.409c0-.943-.42-1.818-1.128-2.408v-7.123h18.382c.583 0 1.056-.47 1.056-1.051 0-.582-.473-1.052-1.056-1.052H46.395v-6.691a3.13 3.13 0 001.128-2.41c0-.943-.42-1.818-1.128-2.408v-2.47h22.72l.012.002c.012.003.044.019.044.055 0 .037-.032.053-.044.056a1.053 1.053 0 00-.807 1.022v12.708c0 .39.217.75.565.931a.527.527 0 01.002.936 1.052 1.052 0 00-.567.933v12.856c0 .392.218.751.567.932a.516.516 0 01.284.467.53.53 0 01-.286.47 1.05 1.05 0 00-.565.931v12.708c0 .486.333.908.808 1.023a.054.054 0 01.03.018c.013.017.013.03.013.036 0 .038-.032.053-.044.056-.004 0-.007.002-.011.003h-4.339c-.583 0-1.055.471-1.055 1.052 0 .58.472 1.051 1.055 1.051h4.598c.21 0 .404-.06.568-.165a2.153 2.153 0 00.488-3.712V50.588a2.624 2.624 0 000-3.87V34.934a2.619 2.619 0 00.851-1.936z"/><path id="Path_2" d="M66.41 49c0-.552-.467-1-1.043-1h-9.606c-.576 0-1.043.448-1.043 1s.467 1 1.043 1h9.606c.576 0 1.043-.448 1.043-1z"/><path id="Path_3" d="M41.077 22.164c0-.59-.476-1.07-1.062-1.07h-6.448A14.772 14.772 0 0024.513 18a14.74 14.74 0 00-9.043 3.094H9.01c-.586 0-1.061.48-1.061 1.07 0 .591.475 1.07 1.061 1.07h4.214A15.003 15.003 0 009.627 33c0 3.727 1.357 7.14 3.598 9.767H9.01c-.586 0-1.061.479-1.061 1.07 0 .59.475 1.07 1.061 1.07h6.46A14.735 14.735 0 0024.513 48c3.377 0 6.534-1.139 9.065-3.093h6.437c.586 0 1.061-.48 1.061-1.07 0-.591-.475-1.07-1.061-1.07h-4.193a15.003 15.003 0 003.13-6.11 1.07 1.07 0 00-.771-1.298 1.063 1.063 0 00-1.288.777 12.82 12.82 0 01-4.274 6.805 1.08 1.08 0 00-.176.143 12.689 12.689 0 01-7.93 2.776c-7.037 0-12.762-5.769-12.762-12.86 0-7.09 5.725-12.86 12.761-12.86a12.68 12.68 0 018.581 3.34 12.86 12.86 0 014.116 8.204c.06.588.578 1.017 1.164.956a1.068 1.068 0 00.949-1.172 15 15 0 00-3.514-8.234h4.207c.586 0 1.062-.479 1.062-1.07z"/><path id="Shape" fill-rule="evenodd" clip-rule="evenodd" d="M15.184 31.118a1.383 1.383 0 00-1.389 1.434 10.154 10.154 0 004.787 8.237 1.399 1.399 0 001.07.17c.365-.09.683-.327.87-.65l2.68-4.611a3.67 3.67 0 001.646 0l2.68 4.611a1.398 1.398 0 001.201.691c.26 0 .518-.072.739-.21a10.155 10.155 0 004.787-8.238 1.384 1.384 0 00-1.388-1.434h-5.359a3.633 3.633 0 00-.823-1.416l2.68-4.613a1.378 1.378 0 00-.555-1.912 10.309 10.309 0 00-9.57.001 1.378 1.378 0 00-.555 1.912l2.68 4.613a3.645 3.645 0 00-.821 1.416h-5.36v-.001zm3.899 7.45a8.048 8.048 0 01-3.103-5.342h4.56c.163.525.448 1.015.824 1.417l-2.281 3.926zm4.182-5.086c-1.693-.974-.192-3.577 1.521-2.62 1.705.952.176 3.599-1.52 2.62zm5.702 5.088l-2.281-3.926c.377-.402.663-.892.824-1.418h4.562a8.048 8.048 0 01-3.105 5.344zM27.13 24.72a8.195 8.195 0 00-6.21 0l2.28 3.925a3.702 3.702 0 011.649 0l2.28-3.925z"/></g></svg>