<svg width="51" height="64" fill="none" xmlns="http://www.w3.org/2000/svg"><g id="worker" fill="#86ADEF"><path id="Path" d="M25.72 39c-6.13 0-11.174-4.922-11.64-11.152-1.777-.351-3.28-1.658-3.895-3.469-.183-.54.09-1.132.612-1.322a.996.996 0 011.276.634c.444 1.304 1.638 2.18 2.973 2.18.552 0 1 .463 1 1.035 0 5.526 4.34 10.021 9.675 10.021 5.335 0 9.675-4.495 9.675-10.02 0-.573.448-1.037 1-1.037 1.329 0 2.521-.87 2.968-2.166a.993.993 0 011.28-.626c.52.192.79.785.605 1.325-.62 1.797-2.12 3.095-3.887 3.445C36.897 34.078 31.853 39 25.72 39z"/><path id="Path_2" d="M39.345 19H11.117c-.546 0-.989-.455-.989-1.017 0-7.017 4.373-13.023 10.881-14.944a.986.986 0 011.223.697 1.022 1.022 0 01-.677 1.259c-5.335 1.576-9.018 6.314-9.414 11.97h26.18c-.395-5.603-4.032-10.327-9.299-11.936-.523-.16-.82-.727-.666-1.265.156-.538.705-.849 1.229-.687 6.43 1.965 10.748 7.955 10.748 14.906 0 .562-.442 1.017-.988 1.017z"/><path id="Shape" fill-rule="evenodd" clip-rule="evenodd" d="M21.82 19h6.82c.539 0 .975-.457.975-1.023V1.365c0-.48-.318-.896-.766-.999C27.87.14 26.482 0 25.23 0c-1.25 0-2.637.14-3.618.366-.447.102-.766.519-.766 1v16.61c0 .566.437 1.024.975 1.024zm5.846-2.047h-4.871V2.223a17.902 17.902 0 014.871 0v14.73z"/><path id="Path_3" d="M39.359 15h-4.872a.988.988 0 01-.974-1c0-.553.436-1 .974-1h4.872c.538 0 .974.447.974 1 0 .553-.436 1-.974 1z"/><path id="Path_4" d="M15.974 15h-3.897a.987.987 0 01-.974-1c0-.553.436-1 .974-1h3.897c.538 0 .975.447.975 1 0 .553-.437 1-.975 1z"/><path id="Shape_2" fill-rule="evenodd" clip-rule="evenodd" d="M8.206 24H43.23a1 1 0 001-1v-5a1 1 0 00-1-1H8.206a1 1 0 00-1 1v5a1 1 0 001 1zm34.023-2H9.207v-3h33.022v3z"/><path id="Path_5" d="M26.357 44c-3.529 0-7.141-1.59-9.206-4.007-.622.11-1.242.257-1.853.435a.992.992 0 01-1.23-.639.952.952 0 01.66-1.191 19.64 19.64 0 012.699-.588c.365-.05.733.097.95.39 1.598 2.172 4.88 3.688 7.98 3.688 2.925 0 5.592-1.343 7.318-3.682a1 1 0 01.951-.39c.692.101 1.383.242 2.055.419a.954.954 0 01.695 1.172.987.987 0 01-1.211.672 16.874 16.874 0 00-1.26-.279c-2.104 2.55-5.185 4-8.548 4z"/><path id="Path_6" d="M49.103 60h-9.744c-.538 0-.974-.46-.974-1.03 0-.569.436-1.03.974-1.03h8.77v-1.274c0-6.072-2.896-11.59-7.746-14.76-.457-.298-.6-.933-.316-1.418.282-.483.884-.634 1.341-.333 5.429 3.548 8.669 9.72 8.669 16.512v2.304c0 .569-.437 1.029-.974 1.029z"/><path id="Path_7" d="M11.114 60H1.348c-.532 0-.963-.452-.963-1.01v-2.26c0-6.11 3.05-11.925 8.159-15.556a.935.935 0 011.338.27 1.042 1.042 0 01-.257 1.403C5.045 46.102 2.31 51.29 2.31 56.73v1.25h8.803c.531 0 .963.452.963 1.01S11.645 60 11.114 60z"/><path id="Shape_3" fill-rule="evenodd" clip-rule="evenodd" d="M11.73 64h26.027c.51 0 .938-.388.994-.9l2.55-23.767a1.015 1.015 0 00-.268-.803l-3.024-3.216a.994.994 0 00-1.656.328l-4.72 12.213H17.854l-4.72-12.213a.994.994 0 00-1.656-.328L8.454 38.53c-.202.215-.3.508-.269.803l2.552 23.766c.055.512.483.901.993.901zm25.13-2.018H12.627l-2.404-22.401 1.623-1.725L16.24 49.23a1 1 0 00.93.642h15.144a1 1 0 00.931-.642l4.396-11.375 1.623 1.724-2.404 22.402z"/></g></svg>