<svg width="42" height="70" fill="none" xmlns="http://www.w3.org/2000/svg"><g id="fire-extinguisher" fill-rule="evenodd" clip-rule="evenodd" fill="#86ADEF"><path id="Shape" d="M41.271 1.353a1.079 1.079 0 00-.94-.204L25.3 4.981C24.674 2.135 22.18 0 19.201 0c-3.073 0-5.633 2.273-6.153 5.256h-4.55c-4.262 0-7.729 3.415-7.729 7.611 0 .617.49 1.117 1.096 1.117.605 0 1.095-.5 1.095-1.117 0-2.965 2.484-5.377 5.538-5.377h4.452v2.234H8.498c-.605 0-1.096.5-1.096 1.117s.49 1.117 1.096 1.117h4.452v5.991a15.095 15.095 0 00-6.125 5.24 15.44 15.44 0 00-2.655 8.698v36.996C4.17 69.5 4.66 70 5.265 70h27.87c.606 0 1.096-.5 1.096-1.117V31.887a15.44 15.44 0 00-2.655-8.698 15.096 15.096 0 00-6.125-5.24v-4.016l14.88 3.793a1.074 1.074 0 00.94-.203c.266-.212.421-.537.421-.88V2.233c0-.344-.155-.669-.42-.88zm-22.07.881c2.238 0 4.06 1.857 4.06 4.14v11.195h-8.12V6.373c0-2.282 1.821-4.139 4.06-4.139zM6.36 60.818v6.948h25.68v-6.948H6.36zM31.993 30.77H14.029c-.605 0-1.095.5-1.095 1.117s.49 1.117 1.095 1.117H32.04v25.58H6.36v-25.58h3.287c.605 0 1.096-.5 1.096-1.117s-.49-1.117-1.096-1.117H6.408c.4-4.859 3.389-9.07 7.858-10.967h9.87c4.468 1.897 7.457 6.108 7.857 10.967zm-6.542-19.14l14.05 3.582V3.664l-14.05 3.581v4.385z"/><path id="Shape_2" d="M18.795 56c-2.316 0-4.338-.828-5.85-2.395-1.564-1.62-2.45-3.927-2.432-6.327.034-4.45 3.1-8.427 3.231-8.594a1.06 1.06 0 011.72.054l.218.316c.527-1.183 1.31-2.626 2.34-3.718a1.06 1.06 0 011.546.001c1.03 1.09 1.812 2.534 2.34 3.717l.217-.316a1.06 1.06 0 011.72-.054c.13.167 3.198 4.144 3.231 8.594.018 2.4-.868 4.706-2.432 6.328C23.133 55.172 21.11 56 18.794 56zm-3.939-14.307l-.257-.373c-.805 1.353-1.912 3.633-1.93 5.975-.014 1.813.645 3.544 1.807 4.749 1.098 1.138 2.591 1.739 4.319 1.739 1.728 0 3.221-.602 4.319-1.74 1.162-1.204 1.82-2.935 1.807-4.748-.018-2.341-1.125-4.622-1.93-5.975l-.257.373c-.318.462-.463.673-.887.758a1.073 1.073 0 01-1.241-.773c-.193-.595-.813-2.356-1.811-3.822-.998 1.466-1.618 3.227-1.811 3.822a1.082 1.082 0 01-.971.792c-.598.033-.845-.323-1.157-.777z"/></g></svg>