<svg width="66" height="64" fill="none" xmlns="http://www.w3.org/2000/svg"><g id="factory" fill="#86ADEF"><path id="Path" d="M51.23 13a.968.968 0 00.69-.293 1.02 1.02 0 000-1.414.968.968 0 00-.69-.293.972.972 0 00-.69.293 1.021 1.021 0 000 1.414.972.972 0 00.69.293z"/><path id="Shape" fill-rule="evenodd" clip-rule="evenodd" d="M54.715 18.647l10.456 5.466c.416.217.675.64.675 1.103V62.75c0 .69-.57 1.25-1.275 1.25H1.84c-.704 0-1.275-.56-1.275-1.25v-43c0-.69.57-1.25 1.275-1.25v-5.88c0-3.76 3.12-6.818 6.954-6.818h3.504A4.831 4.831 0 0115.7 4.498c.266.005.528.03.786.077C18.046 1.798 21.076 0 24.363 0c3.788 0 7.157 2.368 8.435 5.779a6.52 6.52 0 01.593-.028c3.035 0 5.574 2.116 6.165 4.921h5.81c.705 0 1.275.56 1.275 1.25s-.57 1.25-1.275 1.25h-6.955c-.704 0-1.275-.56-1.275-1.25 0-2.024-1.68-3.67-3.745-3.67a3.786 3.786 0 00-2.455.899 3.707 3.707 0 00-.825 1 1.278 1.278 0 01-1.117.645c-.209 0-.42-.05-.616-.156a1.237 1.237 0 01-.5-1.699 6.185 6.185 0 012.478-2.422C29.408 4.14 27.031 2.5 24.362 2.5c-2.643 0-5.057 1.625-6.005 4.044-.128.327-.39.585-.72.714a1.3 1.3 0 01-1.025-.036 2.296 2.296 0 00-2.596.426 2.378 2.378 0 00-.733 1.702c0 1.254 1.041 2.275 2.32 2.275h4.815c.704 0 1.275.56 1.275 1.25s-.57 1.25-1.275 1.25h-4.814c-2.686 0-4.871-2.142-4.871-4.775 0-.354.041-.705.12-1.048h-2.06c-2.428 0-4.404 1.937-4.404 4.318v5.88h2.252v-1.77c0-1.678 1.392-3.043 3.103-3.043.705 0 1.275.56 1.275 1.25s-.57 1.25-1.275 1.25a.548.548 0 00-.553.543v1.77h1.828c.705 0 1.275.56 1.275 1.25V33.5H31.93V19.75c0-.439.235-.846.62-1.072.383-.226.86-.238 1.255-.031l8.58 4.486V19.75c0-.439.236-.846.62-1.072.383-.226.86-.238 1.255-.031l8.58 4.486V19.75c0-.439.236-.846.62-1.072.384-.226.86-.238 1.255-.031zM9.745 26h-6.63v30.5h6.63V26zm0-2.5h-6.63V21h6.63v2.5zm0 35.5h-6.63v2.5h6.63V59zm23.46 2.5h-20.91V41H23.77c.704 0 1.275-.56 1.275-1.25s-.571-1.25-1.275-1.25H12.294V36h38.252v25.5h-17.34zm19.89 0h10.201V25.965l-7.905-4.132v3.382c0 .44-.235.846-.62 1.073-.383.225-.86.237-1.255.03l-8.58-4.485v3.383c0 .439-.236.845-.62 1.072-.384.225-.86.237-1.255.03l-8.58-4.485V33.5h17.34c.704 0 1.275.56 1.275 1.25V61.5z"/><path id="Shape_2" fill-rule="evenodd" clip-rule="evenodd" d="M15.495 44h6.19c.712 0 1.29.593 1.29 1.324v6.352c0 .731-.578 1.324-1.29 1.324h-6.19c-.713 0-1.29-.593-1.29-1.324v-6.352c0-.731.577-1.324 1.29-1.324zm1.29 6.353h3.61v-3.706h-3.61v3.706z"/><path id="Shape_3" fill-rule="evenodd" clip-rule="evenodd" d="M28.161 44h6.19c.713 0 1.29.593 1.29 1.324v6.352c0 .731-.577 1.324-1.29 1.324h-6.19c-.712 0-1.29-.593-1.29-1.324v-6.352c0-.731.578-1.324 1.29-1.324zm1.29 6.353h3.61v-3.706h-3.61v3.706z"/><path id="Shape_4" fill-rule="evenodd" clip-rule="evenodd" d="M40.828 44h6.19c.712 0 1.29.593 1.29 1.324v6.352c0 .731-.578 1.324-1.29 1.324h-6.19c-.712 0-1.29-.593-1.29-1.324v-6.352c0-.731.578-1.324 1.29-1.324zm1.29 6.353h3.61v-3.706h-3.61v3.706z"/><path id="Path_2" d="M27.846 40a.968.968 0 00.689-.293 1.02 1.02 0 000-1.414.968.968 0 00-.689-.293.967.967 0 00-.689.293 1.016 1.016 0 000 1.414.968.968 0 00.69.293z"/></g></svg>