<svg width="61" height="70" fill="none" xmlns="http://www.w3.org/2000/svg"><g id="engineer"><path id="Shape" fill-rule="evenodd" clip-rule="evenodd" d="M59.647 33.21l-2.697-1.198v-1.904c.037-11.691-7.105-22.122-17.79-25.98V1.444C39.16.647 38.534 0 37.763 0H22.811c-.771 0-1.398.647-1.398 1.444v2.698C10.728 8 3.586 18.431 3.624 30.122v1.92L.955 33.21c-.517.226-.852.75-.852 1.328v7.578c0 .796.626 1.443 1.397 1.443h1.817v2.887c0 .796.626 1.443 1.397 1.443h5.017a22.228 22.228 0 002.082 5.167l-3.55 3.666a1.476 1.476 0 000 2.035l5.94 6.134c.544.56 1.425.56 1.97 0l3.55-3.666a20.748 20.748 0 004.988 2.15v5.182c0 .796.626 1.443 1.398 1.443h8.384c.771 0 1.398-.647 1.398-1.443v-5.182a20.726 20.726 0 005.002-2.15l3.55 3.666c.545.56 1.425.56 1.97 0l5.94-6.134a1.476 1.476 0 000-2.035l-3.55-3.666a22.234 22.234 0 002.082-5.167H55.9c.772 0 1.398-.647 1.398-1.443v-2.887h1.817c.771 0 1.397-.647 1.397-1.443v-7.578a1.444 1.444 0 00-.866-1.328zM24.18 2.901h12.186v24.117H24.208L24.18 2.901zm25.685 42.101h4.653l-.014-1.443H41.718c-.638 5.432-4.784 9.713-10.044 10.373-6.313.792-12.052-3.852-12.818-10.373H6.084v1.443h4.653c.67-.016 1.256.463 1.397 1.14a19.327 19.327 0 002.6 6.322 1.48 1.48 0 01-.182 1.804l-3.34 3.45 3.954 4.084 3.34-3.45a1.365 1.365 0 011.747-.187 18.005 18.005 0 006.149 2.641c.655.146 1.12.75 1.104 1.443v4.907h5.59v-4.863c-.016-.693.448-1.298 1.103-1.444a18.066 18.066 0 006.15-2.64 1.364 1.364 0 011.746.187l3.34 3.45 3.996-4.1-3.34-3.45a1.479 1.479 0 01-.18-1.803 19.315 19.315 0 002.556-6.351c.141-.677.727-1.156 1.398-1.14zM21.706 43.56H38.91c-.769 4.91-5.246 8.247-10 7.453-3.709-.62-6.617-3.623-7.216-7.453h.013zM2.884 40.672h54.848V35.52l-2.697-1.197a1.442 1.442 0 01-.852-1.328v-2.887c.039-10.093-5.91-19.183-14.995-22.905v21.26c0 .796-.626 1.443-1.397 1.443H22.81c-.772 0-1.398-.647-1.398-1.443V7.202c-9.07 3.724-15.011 12.796-14.98 22.876v2.887c0 .579-.336 1.103-.853 1.328L2.884 35.49v5.181z" fill="#86ADEF"/></g></svg>